<?xml version="1.0" encoding="iso-8859-1"?>
<!-- Generator: Adobe Illustrator 19.0.0, SVG Export Plug-In . SVG Version: 6.00 Build 0)  -->
<svg xmlns="http://www.w3.org/2000/svg" xmlns:xlink="http://www.w3.org/1999/xlink" version="1.1" id="Layer_1" x="0px" y="0px" viewBox="0 0 219.266 219.266" style="enable-background:new 0 0 219.266 219.266;" xml:space="preserve" width="512px" height="512px">
<g>
	<g>
		<path d="M198.203,146.633c-1.003-6.52-4.207-11.379-9.526-14.441c-9.523-5.483-24.08-3.564-34.611-1.007    c15.482-16.111,31.96-37.498,31.96-55.562c0-10.846-1.967-19.935-5.742-27.283l0.577-0.577c5.456-5.452,8.462-12.705,8.462-20.421    s-3.006-14.969-8.462-20.425c-2.97-2.97-6.455-5.21-10.364-6.657c-1.511-0.564-3.211-0.194-4.352,0.951    c-1.14,1.14-1.511,2.841-0.951,4.352c2.796,7.543,0.931,16.093-4.755,21.779l-2.147,2.147c-6.233-2.191-13.475-3.315-21.719-3.315    c-11.435,0-22.363,3.9-31.159,11.048c-8.796-7.148-19.724-11.048-31.163-11.048c-8.484,0-15.89,1.207-22.242,3.526l-2.357-2.357    c-5.689-5.689-7.555-14.236-4.755-21.779c0.56-1.511,0.189-3.212-0.951-4.352c-1.14-1.145-2.845-1.515-4.352-0.951    c-3.913,1.451-7.402,3.691-10.368,6.657c-11.258,11.262-11.258,29.588,0,40.846l1.06,1.06c-3.611,7.262-5.484,16.194-5.484,26.799    c0,23.818,28.452,53.329,45.407,68.798c1.108,1.011,26.409,24.011,34.802,24.869v0.008c0.101,0.012,0.21,0.016,0.318,0.016    c0.044-0.004,0.097,0,0.141,0c0.113,0,0.217-0.004,0.322-0.012l-0.004-0.016c8.107-0.874,33.053-23.411,34.149-24.402    c0.255-0.231,0.536-0.495,0.796-0.732l3.319-1.299c7.716-3.026,30.039-9.55,40.508-3.51c3.083,1.773,4.875,4.569,5.488,8.546    c1.515,9.852-7.269,13.934-21.916,19.482c-12.958,4.908-27.646,10.472-27.646,25.276c0,6.105-7.019,11.81-18.773,15.263    c-22.665,6.657-53.957,2.877-64.406-13.369l-1.033-1.608l9.112-7.921c1.08-0.939,1.596-2.369,1.366-3.78    c-0.234-1.41-1.177-2.603-2.498-3.147l-34.11-14.083c-1.447-0.609-3.103-0.331-4.283,0.697c-1.18,1.027-1.676,2.631-1.289,4.142    l9.199,35.737c0.359,1.386,1.406,2.486,2.772,2.913c0.403,0.125,0.814,0.185,1.225,0.185c0.979,0,1.946-0.351,2.708-1.011    l9.505-8.262l0.387,0.603c8.966,13.95,28.919,20.26,48.804,20.26c8.599,0,17.189-1.18,24.866-3.437    c15.699-4.61,24.7-13.059,24.7-23.181c0-8.474,8.836-12.455,22.319-17.56C184.326,170.059,200.846,163.806,198.203,146.633z     M166.274,33.177c5.564-5.564,8.518-13.088,8.45-20.719c0.101,0.097,0.201,0.194,0.302,0.294c3.896,3.896,6.044,9.078,6.044,14.59    c0,5.2-1.972,10.069-5.464,13.881c-2.636-3.158-5.737-5.857-9.349-8.029L166.274,33.177z M35.061,12.752    c0.101-0.101,0.201-0.198,0.302-0.298c-0.064,7.632,2.885,15.159,8.454,20.723l0.301,0.301c-3.588,2.225-6.679,4.96-9.28,8.178    C27.049,33.594,27.103,20.714,35.061,12.752z M105.382,160.989c-9.485-3.482-72.328-54.135-72.328-85.367    c0-27.722,13.474-41.197,41.197-41.197c10.585,0,20.642,4.005,28.326,11.282c1.588,1.507,4.086,1.507,5.673,0    c7.684-7.277,17.741-11.282,28.323-11.282c27.722,0,41.201,13.474,41.201,41.197C177.774,106.226,114.912,157.322,105.382,160.989    z M40.102,196.057l-5.48-21.279l20.312,8.385L40.102,196.057z" fill="#FFFFFF"/>
	</g>
</g>
<g>
</g>
<g>
</g>
<g>
</g>
<g>
</g>
<g>
</g>
<g>
</g>
<g>
</g>
<g>
</g>
<g>
</g>
<g>
</g>
<g>
</g>
<g>
</g>
<g>
</g>
<g>
</g>
<g>
</g>
</svg>
